<svg baseProfile="full" height="100%" version="1.1" viewBox="25.0,5.0,475.0,80.0" width="100%" xmlns="http://www.w3.org/2000/svg" xmlns:ev="http://www.w3.org/2001/xml-events" xmlns:xlink="http://www.w3.org/1999/xlink"><defs /><g><line stroke="lightgrey" stroke-dasharray="2" x1="70.0" x2="69.0" y1="15.0" y2="15.0" /><line stroke="lightgrey" stroke-dasharray="2" x1="50.0" x2="69.0" y1="35.0" y2="35.0" /><line stroke="lightgrey" stroke-dasharray="2" x1="70.0" x2="69.0" y1="55.0" y2="55.0" /><line stroke="lightgrey" stroke-dasharray="2" x1="50.0" x2="49.0" y1="75.0" y2="75.0" /></g><g><line stroke="#c65353" stroke-width="2.0" x1="55.0" x2="55.0" y1="15.0" y2="55.0" /><line stroke="#c6c653" stroke-width="2.0" x1="35.0" x2="35.0" y1="35.0" y2="75.0" /></g><g><line stroke="white" stroke-width="6.0" x1="35.0" x2="40.0" y1="35.0" y2="35.0" /></g><g><path d="M 55.0,20.0 a15.0,15.0 0 0,1 -15.0,15.0" fill="none" stroke="#c65353" stroke-width="2.0" /><line stroke="#c65353" stroke-width="2.0" x1="35.0" x2="40.0" y1="35.0" y2="35.0" /></g><g><circle cx="55.0" cy="15.0" fill="#c65353" id="NdwaveoptimizationsymbolscollectionsDisjointBitSetsat0x1e686536f10" r="6.0" stroke="white" stroke-width="2.0" /><text dominant-baseline="middle" fill="currentColor" font-family="sans-serif" font-size="inherit" x="75.0" y="15.0">&lt;dwave.optimization.symbols.collections.DisjointBitSets at 0x1e686536f10&gt;</text><circle cx="35.0" cy="35.0" fill="#c6c653" id="NdwaveoptimizationsymbolscollectionsDisjointBitSetat0x1e68654a2a0" r="6.0" stroke="white" stroke-width="2.0" /><text dominant-baseline="middle" fill="currentColor" font-family="sans-serif" font-size="inherit" x="75.0" y="35.0">&lt;dwave.optimization.symbols.collections.DisjointBitSet at 0x1e68654a2a0&gt;</text><circle cx="55.0" cy="55.0" fill="#53c653" id="NdwaveoptimizationsymbolscollectionsDisjointBitSetat0x1e686549e80" r="6.0" stroke="white" stroke-width="2.0" /><text dominant-baseline="middle" fill="currentColor" font-family="sans-serif" font-size="inherit" x="75.0" y="55.0">&lt;dwave.optimization.symbols.collections.DisjointBitSet at 0x1e686549e80&gt;</text><circle cx="35.0" cy="75.0" fill="#53c6c6" id="NdwaveoptimizationsymbolsreduceSumat0x1e6c036c028" r="6.0" stroke="white" stroke-width="2.0" /><text dominant-baseline="middle" fill="currentColor" font-family="sans-serif" font-size="inherit" x="55.0" y="75.0">&lt;dwave.optimization.symbols.reduce.Sum at 0x1e6c036c028&gt;</text></g></svg>