<svg baseProfile="full" height="100%" version="1.1" viewBox="25.0,5.0,475.0,120.0" width="100%" xmlns="http://www.w3.org/2000/svg" xmlns:ev="http://www.w3.org/2001/xml-events" xmlns:xlink="http://www.w3.org/1999/xlink"><defs /><g><line stroke="lightgrey" stroke-dasharray="2" x1="90.0" x2="89.0" y1="15.0" y2="15.0" /><line stroke="lightgrey" stroke-dasharray="2" x1="70.0" x2="89.0" y1="35.0" y2="35.0" /><line stroke="lightgrey" stroke-dasharray="2" x1="50.0" x2="89.0" y1="55.0" y2="55.0" /><line stroke="lightgrey" stroke-dasharray="2" x1="50.0" x2="89.0" y1="75.0" y2="75.0" /><line stroke="lightgrey" stroke-dasharray="2" x1="50.0" x2="89.0" y1="95.0" y2="95.0" /><line stroke="lightgrey" stroke-dasharray="2" x1="50.0" x2="49.0" y1="115.0" y2="115.0" /></g><g><line stroke="#53c653" stroke-width="2.0" x1="35.0" x2="35.0" y1="55.0" y2="75.0" /><line stroke="#c6c653" stroke-width="2.0" x1="55.0" x2="55.0" y1="35.0" y2="60.0" /><line stroke="#53c6c6" stroke-width="2.0" x1="35.0" x2="35.0" y1="75.0" y2="95.0" /><line stroke="#c65353" stroke-width="2.0" x1="75.0" x2="75.0" y1="15.0" y2="80.0" /><line stroke="#5353c6" stroke-width="2.0" x1="35.0" x2="35.0" y1="95.0" y2="115.0" /></g><g><line stroke="white" stroke-width="6.0" x1="35.0" x2="40.0" y1="75.0" y2="75.0" /><line stroke="white" stroke-width="6.0" x1="35.0" x2="60.0" y1="95.0" y2="95.0" /></g><g><path d="M 55.0,60.0 a15.0,15.0 0 0,1 -15.0,15.0" fill="none" stroke="#c6c653" stroke-width="2.0" /><line stroke="#c6c653" stroke-width="2.0" x1="35.0" x2="40.0" y1="75.0" y2="75.0" /><path d="M 75.0,80.0 a15.0,15.0 0 0,1 -15.0,15.0" fill="none" stroke="#c65353" stroke-width="2.0" /><line stroke="#c65353" stroke-width="2.0" x1="35.0" x2="60.0" y1="95.0" y2="95.0" /></g><g><circle cx="75.0" cy="15.0" fill="#c65353" id="NdwaveoptimizationsymbolsConstantat0x559b56f604a0" r="6.0" stroke="white" stroke-width="2.0" /><text dominant-baseline="middle" font-family="sans-serif" font-size="inherit" x="95.0" y="15.0">&lt;dwave.optimization.symbols.Constant at 0x559b56f604a0&gt;</text><circle cx="55.0" cy="35.0" fill="#c6c653" id="NdwaveoptimizationsymbolsConstantat0x559b568bd0c0" r="6.0" stroke="white" stroke-width="2.0" /><text dominant-baseline="middle" font-family="sans-serif" font-size="inherit" x="95.0" y="35.0">&lt;dwave.optimization.symbols.Constant at 0x559b568bd0c0&gt;</text><circle cx="35.0" cy="55.0" fill="#53c653" id="NdwaveoptimizationsymbolsIntegerVariableat0x559b56d274d0" r="6.0" stroke="white" stroke-width="2.0" /><text dominant-baseline="middle" font-family="sans-serif" font-size="inherit" x="95.0" y="55.0">&lt;dwave.optimization.symbols.IntegerVariable at 0x559b56d274d0&gt;</text><circle cx="35.0" cy="75.0" fill="#53c6c6" id="NdwaveoptimizationsymbolsMultiplyat0x559b57314190" r="6.0" stroke="white" stroke-width="2.0" /><text dominant-baseline="middle" font-family="sans-serif" font-size="inherit" x="95.0" y="75.0">&lt;dwave.optimization.symbols.Multiply at 0x559b57314190&gt;</text><circle cx="35.0" cy="95.0" fill="#5353c6" id="NdwaveoptimizationsymbolsSubtractat0x559b56ee36f0" r="6.0" stroke="white" stroke-width="2.0" /><text dominant-baseline="middle" font-family="sans-serif" font-size="inherit" x="95.0" y="95.0">&lt;dwave.optimization.symbols.Subtract at 0x559b56ee36f0&gt;</text><circle cx="35.0" cy="115.0" fill="#c653c6" id="Nminimize" r="6.0" stroke="white" stroke-width="2.0" /><text dominant-baseline="middle" font-family="sans-serif" font-size="inherit" x="55.0" y="115.0">minimize</text></g></svg>