<svg baseProfile="full" height="100%" version="1.1" viewBox="25.0,5.0,475.0,100.0" width="100%" xmlns="http://www.w3.org/2000/svg" xmlns:ev="http://www.w3.org/2001/xml-events" xmlns:xlink="http://www.w3.org/1999/xlink"><defs /><g><line stroke="lightgrey" stroke-dasharray="2" x1="70.0" x2="69.0" y1="15.0" y2="15.0" /><line stroke="lightgrey" stroke-dasharray="2" x1="50.0" x2="69.0" y1="35.0" y2="35.0" /><line stroke="lightgrey" stroke-dasharray="2" x1="50.0" x2="69.0" y1="55.0" y2="55.0" /><line stroke="lightgrey" stroke-dasharray="2" x1="50.0" x2="69.0" y1="75.0" y2="75.0" /><line stroke="lightgrey" stroke-dasharray="2" x1="70.0" x2="69.0" y1="95.0" y2="95.0" /></g><g><line stroke="#c65353" stroke-width="2.0" x1="55.0" x2="55.0" y1="15.0" y2="95.0" /></g><g><line stroke="white" stroke-width="6.0" x1="35.0" x2="40.0" y1="35.0" y2="35.0" /><line stroke="white" stroke-width="6.0" x1="35.0" x2="40.0" y1="55.0" y2="55.0" /><line stroke="white" stroke-width="6.0" x1="35.0" x2="40.0" y1="75.0" y2="75.0" /></g><g><path d="M 55.0,20.0 a15.0,15.0 0 0,1 -15.0,15.0" fill="none" stroke="#c65353" stroke-width="2.0" /><line stroke="#c65353" stroke-width="2.0" x1="35.0" x2="40.0" y1="35.0" y2="35.0" /><path d="M 55.0,40.0 a15.0,15.0 0 0,1 -15.0,15.0" fill="none" stroke="#c65353" stroke-width="2.0" /><line stroke="#c65353" stroke-width="2.0" x1="35.0" x2="40.0" y1="55.0" y2="55.0" /><path d="M 55.0,60.0 a15.0,15.0 0 0,1 -15.0,15.0" fill="none" stroke="#c65353" stroke-width="2.0" /><line stroke="#c65353" stroke-width="2.0" x1="35.0" x2="40.0" y1="75.0" y2="75.0" /></g><g><circle cx="55.0" cy="15.0" fill="#c65353" id="NdwaveoptimizationsymbolscollectionsDisjointListsat0x22fdf2da120" r="6.0" stroke="white" stroke-width="2.0" /><text dominant-baseline="middle" fill="currentColor" font-family="sans-serif" font-size="inherit" x="75.0" y="15.0">&lt;dwave.optimization.symbols.collections.DisjointLists at 0x22fdf2da120&gt;</text><circle cx="35.0" cy="35.0" fill="#c6c653" id="NdwaveoptimizationsymbolscollectionsDisjointListat0x22fa484e9b0" r="6.0" stroke="white" stroke-width="2.0" /><text dominant-baseline="middle" fill="currentColor" font-family="sans-serif" font-size="inherit" x="75.0" y="35.0">&lt;dwave.optimization.symbols.collections.DisjointList at 0x22fa484e9b0&gt;</text><circle cx="35.0" cy="55.0" fill="#53c653" id="NdwaveoptimizationsymbolscollectionsDisjointListat0x22fa484edd0" r="6.0" stroke="white" stroke-width="2.0" /><text dominant-baseline="middle" fill="currentColor" font-family="sans-serif" font-size="inherit" x="75.0" y="55.0">&lt;dwave.optimization.symbols.collections.DisjointList at 0x22fa484edd0&gt;</text><circle cx="35.0" cy="75.0" fill="#53c6c6" id="NdwaveoptimizationsymbolscollectionsDisjointListat0x22fa484ec70" r="6.0" stroke="white" stroke-width="2.0" /><text dominant-baseline="middle" fill="currentColor" font-family="sans-serif" font-size="inherit" x="75.0" y="75.0">&lt;dwave.optimization.symbols.collections.DisjointList at 0x22fa484ec70&gt;</text><circle cx="55.0" cy="95.0" fill="#5353c6" id="NdwaveoptimizationsymbolscollectionsDisjointListat0x22fa484e4e0" r="6.0" stroke="white" stroke-width="2.0" /><text dominant-baseline="middle" fill="currentColor" font-family="sans-serif" font-size="inherit" x="75.0" y="95.0">&lt;dwave.optimization.symbols.collections.DisjointList at 0x22fa484e4e0&gt;</text></g></svg>