<?xml version="1.0" encoding="UTF-8"?>
<svg id="Labels" xmlns="http://www.w3.org/2000/svg" viewBox="0 0 1920 1080">
  <defs>
    <style>
      .cls-1 {
        fill: #f27921;
      }

      .cls-2 {
        fill: #4379bc;
      }

      .cls-3 {
        fill: #fff;
      }

      .cls-4 {
        fill: #22bbb9;
      }
    </style>
  </defs>
  <path class="cls-3" d="M735.08,776.87h-8.55v-17.46h-16.02v17.46h-8.58v-40.45h8.58v15.85h16.02v-15.85h8.55v40.45Z"/>
  <path class="cls-3" d="M791.88,753.08l8.44-16.66h9.24l-13.42,24.71v15.74h-8.52v-15.47l-13.42-24.98h9.3l8.38,16.66Z"/>
  <path class="cls-3" d="M848.64,736.43h12.59c5.73,0,9.9.82,12.49,2.45,2.59,1.63,3.89,4.23,3.89,7.79,0,2.41-.57,4.4-1.7,5.95-1.13,1.55-2.64,2.48-4.52,2.79v.28c2.56.57,4.41,1.64,5.55,3.21,1.14,1.57,1.7,3.65,1.7,6.25,0,3.69-1.33,6.57-4,8.63-2.67,2.07-6.28,3.1-10.86,3.1h-15.13v-40.45ZM857.22,752.44h4.98c2.32,0,4.01-.36,5.05-1.08,1.04-.72,1.56-1.91,1.56-3.57,0-1.55-.57-2.66-1.7-3.33-1.13-.67-2.93-1.01-5.38-1.01h-4.51v8.99ZM857.22,759.25v10.54h5.59c2.36,0,4.1-.45,5.23-1.36,1.12-.9,1.69-2.28,1.69-4.15,0-3.36-2.4-5.04-7.19-5.04h-5.31Z"/>
  <path class="cls-3" d="M929.28,761.35v15.52h-8.58v-40.45h11.78c5.5,0,9.56,1,12.2,3s3.96,5.04,3.96,9.11c0,2.38-.65,4.5-1.96,6.35s-3.16,3.31-5.56,4.36c6.09,9.1,10.05,14.97,11.89,17.62h-9.52l-9.66-15.52h-4.57ZM929.28,754.38h2.77c2.71,0,4.71-.45,6-1.36,1.29-.9,1.94-2.32,1.94-4.26s-.66-3.28-1.98-4.09c-1.32-.81-3.36-1.22-6.13-1.22h-2.6v10.93Z"/>
  <path class="cls-3" d="M992.1,776.87v-40.45h8.58v40.45h-8.58Z"/>
  <path class="cls-3" d="M1078.42,756.26c0,6.66-1.9,11.76-5.69,15.3s-9.26,5.31-16.42,5.31h-11.45v-40.45h12.7c6.6,0,11.73,1.74,15.38,5.23,3.65,3.48,5.48,8.35,5.48,14.61ZM1069.51,756.48c0-8.69-3.84-13.03-11.51-13.03h-4.57v26.34h3.68c8.26,0,12.39-4.44,12.39-13.31Z"/>
  <path class="cls-3" d="M1193.39,765.64c0,3.65-1.31,6.53-3.94,8.63-2.63,2.1-6.29,3.15-10.97,3.15-4.32,0-8.13-.81-11.45-2.43v-7.97c2.73,1.22,5.04,2.08,6.93,2.57,1.89.5,3.62.75,5.19.75,1.88,0,3.32-.36,4.33-1.08,1-.72,1.51-1.79,1.51-3.21,0-.79-.22-1.5-.66-2.12s-1.09-1.21-1.95-1.79c-.86-.57-2.61-1.48-5.24-2.74-2.47-1.16-4.33-2.28-5.56-3.35-1.24-1.07-2.22-2.31-2.96-3.74-.74-1.42-1.11-3.08-1.11-4.98,0-3.58,1.21-6.39,3.64-8.44s5.78-3.07,10.06-3.07c2.1,0,4.11.25,6.02.75,1.91.5,3.9,1.2,5.99,2.1l-2.77,6.67c-2.16-.88-3.94-1.5-5.35-1.85s-2.8-.53-4.16-.53c-1.62,0-2.87.38-3.74,1.13-.87.76-1.3,1.74-1.3,2.96,0,.76.17,1.42.52,1.98.35.56.91,1.11,1.68,1.63.76.53,2.58,1.47,5.44,2.84,3.78,1.81,6.37,3.62,7.77,5.44,1.4,1.82,2.1,4.04,2.1,6.68Z"/>
  <path class="cls-3" d="M1271.43,756.59c0,6.7-1.66,11.84-4.98,15.44-3.32,3.6-8.08,5.39-14.27,5.39s-10.96-1.8-14.28-5.39c-3.32-3.6-4.98-8.76-4.98-15.49s1.66-11.87,4.99-15.43c3.33-3.55,8.1-5.32,14.32-5.32s10.97,1.79,14.26,5.37c3.29,3.58,4.94,8.73,4.94,15.44ZM1241.91,756.59c0,4.52.86,7.92,2.57,10.21,1.71,2.29,4.28,3.43,7.69,3.43,6.84,0,10.26-4.55,10.26-13.64s-3.4-13.67-10.21-13.67c-3.41,0-5.98,1.15-7.72,3.44-1.73,2.3-2.6,5.7-2.6,10.22Z"/>
  <path class="cls-3" d="M1313.81,776.87v-40.45h8.58v33.36h16.4v7.08h-24.98Z"/>
  <path class="cls-3" d="M1402.88,736.43h8.66l-13.75,40.45h-9.35l-13.72-40.45h8.66l7.61,24.07c.42,1.42.86,3.07,1.31,4.97.45,1.89.73,3.2.84,3.94.2-1.69.89-4.67,2.08-8.91l7.66-24.07Z"/>
  <path class="cls-3" d="M1473.92,776.87h-23.29v-40.45h23.29v7.03h-14.72v8.88h13.7v7.03h-13.7v10.43h14.72v7.08Z"/>
  <path class="cls-3" d="M1524.93,761.35v15.52h-8.58v-40.45h11.78c5.5,0,9.56,1,12.2,3s3.96,5.04,3.96,9.11c0,2.38-.65,4.5-1.96,6.35s-3.16,3.31-5.56,4.36c6.09,9.1,10.05,14.97,11.89,17.62h-9.52l-9.66-15.52h-4.57ZM1524.93,754.38h2.77c2.71,0,4.71-.45,6-1.36,1.29-.9,1.94-2.32,1.94-4.26s-.66-3.28-1.98-4.09c-1.32-.81-3.36-1.22-6.13-1.22h-2.6v10.93Z"/>
  <path class="cls-3" d="M929.06,497.93h-100.03v197.89h41.69v-140.38c0-14.84,6.99-14.49,13.97-14.49h44.48c3.84.09,9.67,5.1,9.67,5.1l29.74-29.69s-8.03-18.42-39.52-18.42Z"/>
  <path class="cls-3" d="M984.86,498.04c4.57,4.57,9.06,13.91,9.06,27.95v169.82h41.69v-169.91c0-14.08,4.92-23.72,10.47-28.01"/>
  <path class="cls-3" d="M1247.16,497.54h-112.64c-15.27-.11-30,5.62-41.18,16.02-11.85,9.6-18.64,24.11-18.41,39.36v87.46c-.4,15.31,6.09,29.99,17.68,40,11.56,10.19,26.5,15.7,41.91,15.44h155.54v-343.61h-42.9v145.34ZM1123.02,542.96c3.22-2.7,7.28-4.2,11.48-4.24h112.64v101.69c0,6.81,54.38,13.78,39.64,13.78h-152.24c-14.53,0-16.35-7.36-16.35-13.78v-87.61c0-3.86,1.8-7.5,4.87-9.84h-.03Z"/>
  <path class="cls-3" d="M744.24,497.89v-146.12h-42.15v146.12h-65.78v41.91h65.68v156.02h42.06v-155.86h59.44v-42.06h-59.26Z"/>
  <path class="cls-3" d="M1487.72,617.78c15.17.08,29.8-5.65,40.88-16.02,11.75-9.66,18.44-24.16,18.17-39.36v-9.08c.4-15.26-6.06-29.89-17.59-39.88-11.46-10.18-26.34-15.67-41.66-15.38h-112.79c-15.44-.31-30.43,5.18-42.03,15.38-11.42,10.05-17.75,24.68-17.26,39.88v87.24c-.05,15.11,6.6,29.46,18.17,39.18,11.08,10.53,25.84,16.3,41.12,16.08h172.32v-41.18h-172.32c-4.29-.02-8.42-1.63-11.6-4.51-3.07-2.23-4.92-5.77-5-9.57v-22.78h129.59ZM1358.09,553.31c0-6.78,1.97-13.63,16.59-13.63h113.03c14.41,0,16.35,7.33,16.35,13.63v9.08c.03,3.88-1.79,7.53-4.91,9.84-3.17,2.7-7.19,4.2-11.35,4.24h-129.71s0-23.16,0-23.16Z"/>
  <g>
    <path class="cls-3" d="M598.79,684.03c-7.86,7.86-17.52,11.79-28.98,11.79h-138.36s-56.76-40.97-56.76-40.97h188.52c4.4,0,6.59-2.33,6.59-7v-61.36c0-4.4-2.2-6.59-6.59-6.59h-163.69c-7.47,0-13.93-2.73-19.39-8.19-5.33-5.33-7.99-11.72-7.99-19.19v-88.74c0-11.46,3.93-21.12,11.79-28.98,7.99-7.99,17.72-11.99,29.18-11.99h141.97s41.92,40.97,41.92,40.97h-176.9c-4.67,0-6.99,2.33-6.99,6.99v61.36c0,4.67,2.33,6.99,6.99,6.99h163.69c7.32,0,13.66,2.67,18.99,7.99,5.33,5.2,7.99,11.53,7.99,18.99v88.74c0,11.46-4,21.18-11.99,29.18Z"/>
    <path class="cls-3" d="M593.5,437.92c-11.25-9.99-25.84-15.38-40.88-15.09h-7.69v40.85h7.9c14.14,0,16.04,7.19,16.04,13.37v8.91h41.89v-8.91c.39-14.97-5.94-29.33-17.26-39.13Z"/>
    <path class="cls-3" d="M388.61,680.74c11.25,9.99,25.84,15.38,40.88,15.09h7.69s0-40.85,0-40.85h-7.9c-14.14,0-16.04-7.19-16.04-13.37v-8.91s-41.89,0-41.89,0v8.91c-.39,14.97,5.94,29.33,17.26,39.13Z"/>
  </g>
  <g id="DWave">
    <path id="Dwave_A" data-name="Dwave A" class="cls-3" d="M1059.15,348.39c-2.84,2.48-6.51,3.8-10.28,3.74h-29.26c-3.74.07-7.37-1.26-10.18-3.74-2.78-2.41-4.36-5.92-4.26-9.62v-2.38c-.07-3.67,1.59-7.14,4.43-9.42,2.71-2.55,6.31-3.93,10.02-3.9h18.61s0,8.86,0,8.86h-18.61c-1.29,0-2.51.46-3.5,1.29-1.02.76-1.62,1.95-1.62,3.24l-1.06,2.38c0,2.98,2.75,4.43,6.15,4.43h29.26c3.5,0,5.19-1.45,5.19-4.43v-22.78c0-1.22-.59-2.38-1.55-3.14-.99-.86-2.25-1.36-3.57-1.36h-42.88s0-8.86,0-8.86h42.85c3.74-.03,7.34,1.36,10.02,3.9,2.98,2.64,4.43,5.79,4.43,9.42v22.78c0,3.9-1.36,7.14-4.17,9.59h0Z"/>
    <path id="Dwave_V" data-name="Dwave V" class="cls-3" d="M1117.9,338.77c-2.28,8.93-7.04,13.36-14.45,13.36h-12.56c-7.41,0-12.17-4.43-14.45-13.36l-9.29-36.13h9.95s8.93,34.42,8.93,34.42c1.02,4.1,3.14,6.12,6.22,6.12h8.83c3.14,0,6.42-2.05,7.44-6.12l8.83-34.42h9.95s-9.36,36.13-9.36,36.13h-.03Z"/>
    <path id="Dwave_E" data-name="Dwave E" class="cls-3" d="M1184.45,327.83c-2.71,2.51-6.31,3.93-10.02,3.9h-18.71s0-8.93,0-8.93h18.71c1.26,0,2.45-.5,3.41-1.29,1.09-.93,1.69-1.95,1.69-3.14v-2.38c0-2.98-1.69-4.5-5.09-4.5h-29.32c-3.41,0-5.09,1.52-5.09,4.5v22.71c0,1.26.59,2.41,1.62,3.14.96.89,2.21,1.36,3.5,1.36h42.94s0,8.86,0,8.86h-42.94c-3.7,0-7.27-1.36-10.02-3.83-2.84-2.35-4.46-5.85-4.43-9.52v-22.71c-.1-3.67,1.46-7.21,4.27-9.62,2.81-2.48,6.45-3.8,10.18-3.74h29.32c3.74-.07,7.37,1.22,10.22,3.67,2.81,2.41,4.36,5.98,4.23,9.69v2.38c0,3.67-1.42,6.81-4.43,9.46h-.03Z"/>
    <path id="Dot_2" data-name="Dot 2" class="cls-3" d="M885.35,327.3c0,3.27-2.64,5.92-5.88,5.92-3.24,0-5.92-2.64-5.92-5.88,0-3.24,2.64-5.92,5.88-5.92h0c3.24,0,5.88,2.64,5.88,5.88h.03Z"/>
    <path id="Dot_1" data-name="Dot 1" class="cls-2" d="M885.35,308.49c0,3.27-2.64,5.92-5.88,5.92-3.24,0-5.92-2.64-5.92-5.88,0-3.24,2.64-5.92,5.88-5.92h0c3.24,0,5.88,2.64,5.88,5.88h.03Z"/>
    <path id="Dot_4" data-name="Dot 4" class="cls-1" d="M904.99,346.15c0,3.27-2.64,5.92-5.88,5.92-3.24,0-5.92-2.64-5.92-5.88,0-3.24,2.64-5.92,5.88-5.92h0c3.27,0,5.88,2.64,5.92,5.88h0Z"/>
    <path id="Dot_3_Blue" data-name="Dot 3 Blue" class="cls-4" d="M904.99,327.3c0,3.27-2.64,5.92-5.88,5.92-3.24,0-5.88-2.64-5.88-5.92,0-3.27,2.64-5.92,5.88-5.92,3.24,0,5.88,2.64,5.88,5.92h0Z"/>
    <path id="Dwave_W" data-name="Dwave W" class="cls-3" d="M989.33,302.64l-8.79,34.28c-1.02,4.1-3.21,6.12-6.35,6.12h-3.77c-3.04,0-5.42-2.18-6.38-6.12l-.1-.26c-2.38-7.6-9.29-6.94-9.29-6.94-7.01.1-9.36,7.21-9.36,7.21-1.02,4.1-3.21,6.08-6.35,6.08h-4.83c-3.04,0-4.1-2.05-5.12-6.12l-8.89-34.28h-9.92s9.22,36,9.22,36c2.28,8.89,7.01,13.29,14.38,13.29h6.45c7.11,0,11.77-4.1,14.15-12.36l.2-.86c2.31,8.83,7.04,13.22,14.41,13.22h6.48c7.37,0,12.1-4.4,14.38-13.29l9.32-36h-9.88s.03,0,.03,0v.03Z"/>
    <path id="Dwave_D" data-name="Dwave D" class="cls-3" d="M858.17,348.46c-2.81,2.48-6.45,3.83-10.18,3.74h-45.56s0-49.62,0-49.62h45.56c3.7,0,7.24,1.39,9.92,3.93,2.81,2.35,4.4,5.82,4.36,9.46v22.84c0,3.93-1.36,7.17-4.13,9.65h.03ZM853.02,316c0-1.26-.6-2.41-1.59-3.14-.93-.86-2.18-1.36-3.47-1.36h-36.37s0,31.8,0,31.8h36.37c3.37,0,5.06-1.45,5.06-4.43v-22.84h0v-.03Z"/>
  </g>
</svg>